<?xml version="1.0" encoding="utf-8"?>
<!-- Generator: Adobe Illustrator 27.3.1, SVG Export Plug-In . SVG Version: 6.00 Build 0)  -->
<svg version="1.1" id="Layer_1" xmlns="http://www.w3.org/2000/svg" xmlns:xlink="http://www.w3.org/1999/xlink" x="0px" y="0px"
	 viewBox="0 0 2000 2000" style="enable-background:new 0 0 2000 2000;" xml:space="preserve">
<style type="text/css">
	.st0{fill:#3DC1B1;}
	.st1{font-family:'CeraPro-Medium';}
	.st2{font-size:60.0025px;}
	.st3{letter-spacing:18;}
	.st4{fill:#FFFFFF;}
	.st5{fill:url(#SVGID_1_);}
</style>
<g>
	<text transform="matrix(1 0 0 1 667.5208 1123.0281)" class="st0 st1 st2 st3">Technologies</text>
	<g>
		<path class="st4" d="M528.4,930.6h-37.1v-20.1h96.1v20.1h-37.3v116.2h-21.8V930.6z"/>
		<path class="st4" d="M613.6,967.6v79.1h-21.3v-79.1c0-12.4,3-21.3,9-26.8c6-5.5,15.4-8.3,28.3-8.3c5.3,0,10.4,0.5,15.4,1.5v19.7
			c-3.9-0.9-8.9-1.3-15.2-1.3c-6.2,0-10.4,1.1-12.7,3.4C614.8,958.1,613.6,962.1,613.6,967.6z"/>
		<path class="st4" d="M734.3,966.7v46.4c0,11.4-3.4,19.8-10.1,25.3s-17.3,8.3-31.9,8.3c-14.4,0-25.1-2.7-31.9-8.1
			c-6.8-5.4-10.2-13.8-10.2-25.3c0-12.2,3.4-21.1,10.1-26.6c6.8-5.6,16.8-8.4,30.2-8.4h22.6v-10.9c0-6.9-1.8-11.5-5.5-14
			c-3.6-2.5-9.7-3.8-18-3.8c-13.1,0-22.8,1.2-29.2,3.6v-19c6.7-2.3,15.9-3.4,27.6-3.4c15.6,0,27.2,2.8,34.7,8.3
			C730.5,944.7,734.3,953.9,734.3,966.7z M713.2,1011.9v-15.6h-22.8c-6.8,0-11.7,1.3-14.7,3.8c-3,2.5-4.5,6.6-4.5,12.4
			c0,6.1,1.7,10.3,5,12.6c3.3,2.3,8.5,3.4,15.7,3.4c7.5,0,12.9-1.2,16.2-3.5C711.6,1022.6,713.2,1018.3,713.2,1011.9z"/>
		<path class="st4" d="M773.2,969.5v77.3h-21.3v-77.3c0-24.7,14.6-37,43.9-37c14.9,0,25.8,3.1,32.9,9.2c7,6.1,10.6,15.4,10.6,27.8
			v77.3h-21.3v-77.3c0-4.2-0.6-7.5-1.8-9.9c-1.2-2.4-3.4-4.1-6.6-5.4c-3.2-1.2-7.8-1.8-13.7-1.8c-8.7,0-14.6,1.3-17.8,3.9
			C774.8,958.8,773.2,963.2,773.2,969.5z"/>
		<path class="st4" d="M856.1,1041.4v-19.7l10.7,3c8.6,1.8,17.2,2.8,25.7,2.8c7.3,0,12.3-0.6,15.1-1.9c2.8-1.3,4.2-3.6,4.2-7.1
			c0-2.4-0.7-4.4-2.1-6c-1.4-1.6-4.2-3.7-8.3-6.4L876,988.9c-6.2-4.1-10.8-8.4-13.9-12.9c-3.1-4.5-4.6-10.1-4.6-16.7
			c0-9.7,3.1-16.8,9.4-21.5c6.3-4.7,16.2-7,29.9-7c11.4,0,21.9,1.9,31.4,5.6v19.7c-9.5-3.9-20-5.8-31.6-5.8
			c-7.1,0-11.9,0.6-14.5,1.9c-2.6,1.3-3.9,3.6-3.9,6.9c0,2.6,0.6,4.7,1.8,6.3c1.2,1.6,3.6,3.5,7.1,5.7l25.2,17.2
			c7.2,4.8,12.4,9.4,15.6,13.6c3.2,4.3,4.7,9.6,4.7,16c0,9.8-3.3,17-9.9,21.7s-17.1,7-31.4,7C878.8,1046.8,867.1,1045,856.1,1041.4z
			"/>
		<path class="st4" d="M959.4,954.1h-16.5v-15.8l16.5-3.2v-4.5c0-10.8,2.9-18.5,8.7-23.3c5.8-4.7,14.4-7.1,25.7-7.1
			c6.4,0,12.5,0.7,18.4,2.2v18.1c-7.2-1.4-12.9-2.1-16.9-2.1c-10,0-15.1,3.5-15.1,10.6v6.1h31.9v19h-31.9v92.7h-20.8V954.1z"/>
		<path class="st4" d="M1222.9,967.6v79.1h-21.3v-79.1c0-12.4,3-21.3,9-26.8c6-5.5,15.4-8.3,28.3-8.3c5.3,0,10.4,0.5,15.4,1.5v19.7
			c-3.9-0.9-8.9-1.3-15.2-1.3c-6.2,0-10.4,1.1-12.7,3.4C1224,958.1,1222.9,962.1,1222.9,967.6z"/>
		<path class="st4" d="M1288.8,969.5v77.3h-21.3v-77.3c0-24.7,13.6-37,40.9-37c14.3,0,24.3,4.4,30.1,13.3
			c5.8-8.9,15.8-13.3,29.8-13.3c13.9,0,24.1,3,30.5,9.1c6.5,6.1,9.7,15.4,9.7,27.9v77.3h-21v-77.3c0-6.2-1.4-10.6-4.1-13.2
			c-2.7-2.6-7.8-3.9-15.1-3.9c-7.7,0-13,1.3-15.7,3.9c-2.8,2.6-4.2,7-4.2,13.2v77.3h-20.5v-77.3c0-6.1-1.4-10.5-4.3-13.1
			c-2.8-2.6-7.9-3.9-15.3-3.9c-7.4,0-12.5,1.3-15.3,3.9C1290.2,958.9,1288.8,963.3,1288.8,969.5z"/>
		<path class="st4" d="M1508.7,963.5v46.4c0,11.4-3.4,19.8-10.1,25.3c-6.7,5.5-17.3,8.3-31.9,8.3c-14.4,0-25.1-2.7-31.9-8.1
			c-6.8-5.4-10.2-13.8-10.2-25.3c0-12.2,3.4-21.1,10.1-26.6c6.8-5.6,16.8-8.4,30.2-8.4h22.6v-10.9c0-6.9-1.8-11.5-5.5-14
			c-3.6-2.5-9.7-3.8-18-3.8c-13.1,0-22.8,1.2-29.2,3.6v-19c6.7-2.3,15.9-3.4,27.6-3.4c15.6,0,27.2,2.8,34.7,8.3
			C1505,941.4,1508.7,950.6,1508.7,963.5z M1487.7,1008.6V993h-22.8c-6.8,0-11.7,1.3-14.7,3.8c-3,2.5-4.5,6.6-4.5,12.4
			c0,6.1,1.7,10.3,5,12.6c3.3,2.3,8.5,3.4,15.7,3.4c7.5,0,12.9-1.2,16.2-3.5C1486,1019.3,1487.7,1015,1487.7,1008.6z"/>
		<g>
			<linearGradient id="SVGID_1_" gradientUnits="userSpaceOnUse" x1="1163.8683" y1="910.9834" x2="1039.1899" y2="1048.6718">
				<stop  offset="8.499693e-03" style="stop-color:#FFFFFF;stop-opacity:0"/>
				<stop  offset="0.5531" style="stop-color:#3ED9C9"/>
				<stop  offset="0.838" style="stop-color:#484848"/>
			</linearGradient>
			<path class="st5" d="M1178.2,966.1H1152c1.3,4.6,2,9.5,2,14.6c0,29.4-23.9,53.3-53.3,53.3s-53.3-23.9-53.3-53.3
				c0-28.3,22.2-51.5,50.1-53.1v-25.5c-41.9,1.7-75.6,36.3-75.6,78.6c0,43.5,35.3,78.8,78.8,78.8c43.4,0,78.8-35.3,78.8-78.8
				C1179.5,975.7,1179.1,970.8,1178.2,966.1z"/>
		</g>
		<g>
			<rect x="1115" y="890.2" class="st0" width="17.6" height="17.6"/>
			<rect x="1184" y="894.5" class="st0" width="17.6" height="17.6"/>
			<rect x="1099.8" y="931" class="st0" width="24" height="24"/>
			<rect x="1144.5" y="863.5" class="st0" width="24" height="24"/>
			<rect x="1082.9" y="875.4" class="st4" width="17" height="17"/>
			<rect x="1118.8" y="862.4" class="st4" width="9.9" height="9.9"/>
			<rect x="1138.9" y="913.1" class="st4" width="43.8" height="43.8"/>
		</g>
	</g>
</g>
</svg>
