<?xml version="1.0" encoding="utf-8"?>
<!-- Generator: Adobe Illustrator 27.3.1, SVG Export Plug-In . SVG Version: 6.00 Build 0)  -->
<svg version="1.1" id="Layer_1" xmlns="http://www.w3.org/2000/svg" xmlns:xlink="http://www.w3.org/1999/xlink" x="0px" y="0px"
	 viewBox="0 0 2000 2000" style="enable-background:new 0 0 2000 2000;" xml:space="preserve">
<style type="text/css">
	.st0{fill:#3DC1B1;}
	.st1{fill:#484848;}
	.st2{fill:url(#SVGID_1_);}
</style>
<g>
	<g>
		<path class="st0" d="M676.4,1090.7h-13.5v-5.8h33.6v5.8h-13.6v34.5h-6.5V1090.7z"/>
		<path class="st0" d="M720.8,1084.9h26.5v5.8h-20v10.3h15.1v5.6h-15.1v12.8H748v5.8h-27.2V1084.9z"/>
		<path class="st0" d="M781,1123.1c-3.2-1.8-5.8-4.3-7.7-7.5c-1.9-3.2-2.8-6.7-2.8-10.6c0-3.9,0.9-7.4,2.8-10.6
			c1.9-3.2,4.5-5.7,7.7-7.5s6.8-2.7,10.6-2.7c3.7,0,7.1,0.8,10.1,2.5c3,1.7,5.4,3.9,7.2,6.8l-4.9,3.6c-1.4-2.2-3.2-4-5.2-5.2
			c-2.1-1.2-4.4-1.8-7.1-1.8c-2.7,0-5.2,0.6-7.4,1.9c-2.2,1.3-4,3.1-5.2,5.3c-1.3,2.3-1.9,4.8-1.9,7.6s0.6,5.4,1.9,7.6
			c1.3,2.3,3,4.1,5.2,5.3c2.2,1.3,4.7,1.9,7.4,1.9c2.6,0,5-0.6,7.1-1.8c2.1-1.2,3.8-2.9,5.2-5.2l4.9,3.6c-1.7,2.8-4.1,5.1-7.1,6.8
			c-3,1.7-6.4,2.5-10.2,2.5C787.8,1125.8,784.2,1124.9,781,1123.1z"/>
		<path class="st0" d="M835,1084.9h6.5v16.1h20.3v-16.1h6.5v40.3h-6.5v-18.4h-20.3v18.4H835V1084.9z"/>
		<path class="st0" d="M929.9,1084.9v41h-2.2l-24.5-28v27.3h-6.5v-41h2.3l24.5,27.8v-27.2H929.9z"/>
		<path class="st0" d="M966.4,1123.1c-3.2-1.8-5.8-4.3-7.7-7.5c-1.9-3.2-2.8-6.7-2.8-10.6c0-3.9,0.9-7.4,2.8-10.6
			c1.9-3.2,4.4-5.7,7.7-7.5c3.2-1.8,6.8-2.7,10.6-2.7c3.8,0,7.4,0.9,10.6,2.7c3.3,1.8,5.8,4.3,7.7,7.5c1.9,3.2,2.8,6.7,2.8,10.6
			c0,3.9-0.9,7.4-2.8,10.6c-1.9,3.2-4.5,5.7-7.7,7.5c-3.3,1.8-6.8,2.7-10.6,2.7C973.2,1125.8,969.6,1124.9,966.4,1123.1z
			 M984.5,1118c2.2-1.3,3.9-3.1,5.2-5.3c1.3-2.3,1.9-4.8,1.9-7.7c0-2.8-0.6-5.3-1.9-7.6c-1.3-2.3-3-4.1-5.2-5.3s-4.7-1.9-7.4-1.9
			c-2.8,0-5.2,0.6-7.4,1.9c-2.2,1.3-3.9,3.1-5.2,5.3c-1.2,2.3-1.9,4.8-1.9,7.6c0,2.8,0.6,5.4,1.9,7.7c1.2,2.3,3,4.1,5.2,5.3
			c2.2,1.3,4.7,1.9,7.4,1.9C979.8,1119.9,982.3,1119.2,984.5,1118z"/>
		<path class="st0" d="M1024.3,1084.9h6.5v34.5h18.4v5.8h-24.9V1084.9z"/>
		<path class="st0" d="M1081.1,1123.1c-3.2-1.8-5.8-4.3-7.7-7.5c-1.9-3.2-2.8-6.7-2.8-10.6c0-3.9,0.9-7.4,2.8-10.6
			c1.9-3.2,4.4-5.7,7.7-7.5s6.8-2.7,10.6-2.7c3.8,0,7.4,0.9,10.6,2.7s5.8,4.3,7.7,7.5c1.9,3.2,2.8,6.7,2.8,10.6
			c0,3.9-0.9,7.4-2.8,10.6c-1.9,3.2-4.5,5.7-7.7,7.5s-6.8,2.7-10.6,2.7C1087.9,1125.8,1084.4,1124.9,1081.1,1123.1z M1099.2,1118
			c2.2-1.3,3.9-3.1,5.2-5.3s1.9-4.8,1.9-7.7c0-2.8-0.6-5.3-1.9-7.6c-1.3-2.3-3-4.1-5.2-5.3c-2.2-1.3-4.7-1.9-7.4-1.9
			c-2.8,0-5.2,0.6-7.4,1.9c-2.2,1.3-3.9,3.1-5.2,5.3c-1.2,2.3-1.9,4.8-1.9,7.6c0,2.8,0.6,5.4,1.9,7.7c1.2,2.3,3,4.1,5.2,5.3
			c2.2,1.3,4.7,1.9,7.4,1.9C1094.6,1119.9,1097,1119.2,1099.2,1118z"/>
		<path class="st0" d="M1147,1123.1c-3.2-1.8-5.8-4.3-7.7-7.5c-1.9-3.2-2.8-6.7-2.8-10.6c0-3.9,0.9-7.4,2.8-10.6
			c1.9-3.2,4.4-5.7,7.7-7.5s6.8-2.7,10.7-2.7c3.5,0,6.7,0.7,9.5,2.2s5.2,3.5,7.1,6.2l-4.7,3.8c-3-4.2-7-6.3-12-6.3
			c-2.8,0-5.3,0.6-7.5,1.9s-3.9,3.1-5.1,5.3c-1.2,2.3-1.8,4.8-1.8,7.6c0,2.8,0.6,5.4,1.9,7.7c1.3,2.3,3,4.1,5.2,5.4
			c2.2,1.3,4.8,2,7.7,2c2.6,0,5-0.5,7-1.6c2.1-1.1,3.7-2.6,5-4.5v-4.3h-12.4v-5.7h18.9v11.4c-1.8,3.2-4.4,5.8-7.7,7.7
			c-3.3,1.9-7,2.9-11.1,2.9C1153.9,1125.8,1150.3,1124.9,1147,1123.1z"/>
		<path class="st0" d="M1202.9,1084.9h6.5v40.3h-6.5V1084.9z"/>
		<path class="st0" d="M1237.8,1084.9h26.5v5.8h-20v10.3h15.1v5.6h-15.1v12.8h20.8v5.8h-27.2V1084.9z"/>
		<path class="st0" d="M1294.2,1123.5c-2.6-1.5-4.7-3.7-6.3-6.4l4.6-3.5c1.3,2,2.9,3.5,4.5,4.7c1.7,1.2,3.7,1.7,6,1.7
			c2.1,0,3.8-0.5,5-1.5c1.3-1,1.9-2.4,1.9-4.1c0-1.4-0.5-2.5-1.4-3.4c-0.9-0.8-2.4-1.7-4.5-2.7l-4.5-2.1c-2.9-1.3-5.2-2.9-6.9-4.6
			c-1.7-1.7-2.5-3.9-2.5-6.6c0-2.2,0.6-4.1,1.7-5.7c1.1-1.7,2.7-2.9,4.6-3.8c1.9-0.9,4.1-1.3,6.4-1.3c2.8,0,5.4,0.7,7.7,2
			c2.3,1.3,4,3.1,5.3,5.2l-4.5,3.5c-1.1-1.6-2.3-2.8-3.8-3.6c-1.4-0.8-3-1.3-4.7-1.3c-1.7,0-3.2,0.4-4.3,1.3c-1.2,0.8-1.8,2-1.8,3.6
			c0,1,0.2,1.8,0.7,2.4c0.4,0.7,1,1.2,1.8,1.6c0.7,0.4,1.8,1,3.2,1.7l4.5,2.1c3.3,1.5,5.7,3.1,7.3,4.9c1.6,1.8,2.4,3.9,2.4,6.6
			c0,2.3-0.6,4.4-1.7,6.1c-1.2,1.8-2.8,3.1-4.8,4.1c-2.1,1-4.4,1.4-6.9,1.4C1299.8,1125.8,1296.9,1125,1294.2,1123.5z"/>
	</g>
	<g>
		<path class="st1" d="M520.3,929.4h-37.7v-20.5h97.8v20.5h-37.9v118.2h-22.1V929.4z"/>
		<path class="st1" d="M607,967.1v80.5h-21.7v-80.5c0-12.6,3-21.7,9.1-27.3c6.1-5.6,15.7-8.5,28.8-8.5c5.4,0,10.6,0.5,15.7,1.5v20.1
			c-3.9-0.9-9.1-1.3-15.5-1.3c-6.3,0-10.6,1.2-12.9,3.5C608.2,957.4,607,961.4,607,967.1z"/>
		<path class="st1" d="M729.7,966.2v47.2c0,11.6-3.4,20.2-10.3,25.8s-17.6,8.4-32.4,8.4c-14.7,0-25.5-2.7-32.4-8.2
			c-6.9-5.5-10.4-14.1-10.4-25.8c0-12.4,3.4-21.4,10.3-27.1c6.9-5.7,17.1-8.5,30.8-8.5h23v-11.1c0-7-1.9-11.7-5.6-14.3
			c-3.7-2.6-9.8-3.8-18.3-3.8c-13.3,0-23.2,1.2-29.7,3.6v-19.3c6.8-2.3,16.2-3.5,28.1-3.5c15.9,0,27.7,2.8,35.3,8.5
			C725.9,943.7,729.7,953.1,729.7,966.2z M708.3,1012.1v-15.9h-23.2c-6.9,0-11.9,1.3-14.9,3.8c-3.1,2.5-4.6,6.8-4.6,12.6
			c0,6.2,1.7,10.5,5,12.8c3.4,2.3,8.7,3.5,16,3.5c7.6,0,13.1-1.2,16.5-3.5C706.6,1023,708.3,1018.6,708.3,1012.1z"/>
		<path class="st1" d="M769.3,969v78.6h-21.7V969c0-25.1,14.9-37.6,44.6-37.6c15.1,0,26.3,3.1,33.4,9.3c7.2,6.2,10.7,15.7,10.7,28.3
			v78.6h-21.7V969c0-4.3-0.6-7.6-1.8-10c-1.2-2.4-3.5-4.2-6.7-5.5s-7.9-1.9-14-1.9c-8.8,0-14.9,1.3-18.1,3.9
			C770.9,958.1,769.3,962.6,769.3,969z"/>
		<path class="st1" d="M853.6,1042.1V1022l10.9,3.1c8.8,1.9,17.5,2.8,26.1,2.8c7.4,0,12.5-0.7,15.4-2c2.9-1.3,4.3-3.7,4.3-7.2
			c0-2.4-0.7-4.5-2.1-6.1c-1.4-1.6-4.2-3.8-8.4-6.5l-26-17.4c-6.3-4.2-11-8.5-14.1-13.1c-3.1-4.6-4.7-10.2-4.7-17
			c0-9.8,3.2-17.1,9.6-21.9c6.4-4.8,16.5-7.1,30.4-7.1c11.6,0,22.3,1.9,31.9,5.7v20.1c-9.6-3.9-20.4-5.9-32.1-5.9
			c-7.2,0-12.2,0.6-14.8,1.9c-2.6,1.3-4,3.6-4,7c0,2.7,0.6,4.8,1.9,6.4c1.2,1.6,3.6,3.5,7.2,5.8l25.6,17.5
			c7.3,4.9,12.6,9.5,15.8,13.9c3.2,4.3,4.8,9.8,4.8,16.3c0,10-3.3,17.3-10,22.1c-6.7,4.8-17.4,7.1-32,7.1
			C876.7,1047.6,864.8,1045.7,853.6,1042.1z"/>
		<path class="st1" d="M958.8,953.3h-16.8v-16.1l16.8-3.3v-4.6c0-11,3-18.8,8.9-23.7s14.6-7.2,26.1-7.2c6.5,0,12.8,0.7,18.7,2.2
			v18.4c-7.3-1.4-13.1-2.1-17.2-2.1c-10.2,0-15.3,3.6-15.3,10.7v6.3h32.5v19.3h-32.5v94.3h-21.2V953.3z"/>
		<path class="st1" d="M1226.7,967.1v80.5H1205v-80.5c0-12.6,3-21.7,9.1-27.3c6.1-5.6,15.7-8.5,28.8-8.5c5.4,0,10.6,0.5,15.7,1.5
			v20.1c-3.9-0.9-9.1-1.3-15.5-1.3c-6.3,0-10.6,1.2-12.9,3.5C1227.8,957.4,1226.7,961.4,1226.7,967.1z"/>
		<path class="st1" d="M1293.7,969v78.6h-21.7V969c0-25.1,13.8-37.6,41.6-37.6c14.5,0,24.7,4.5,30.6,13.5c5.9-9,16-13.5,30.3-13.5
			c14.1,0,24.5,3.1,31,9.2c6.6,6.2,9.9,15.6,9.9,28.4v78.6h-21.4V969c0-6.3-1.4-10.8-4.2-13.4c-2.8-2.6-7.9-4-15.4-4
			c-7.8,0-13.2,1.3-16,3.9c-2.8,2.6-4.2,7.1-4.2,13.4v78.6h-20.8V969c0-6.2-1.4-10.7-4.3-13.4c-2.9-2.7-8.1-4-15.5-4
			c-7.5,0-12.7,1.3-15.6,4C1295.2,958.2,1293.7,962.7,1293.7,969z"/>
		<path class="st1" d="M1517.4,962.8v47.2c0,11.6-3.4,20.2-10.3,25.8c-6.8,5.6-17.6,8.4-32.4,8.4c-14.7,0-25.5-2.7-32.4-8.2
			c-6.9-5.5-10.4-14.1-10.4-25.8c0-12.4,3.4-21.4,10.3-27.1c6.9-5.7,17.1-8.5,30.8-8.5h23v-11.1c0-7-1.9-11.7-5.6-14.3
			c-3.7-2.6-9.8-3.8-18.3-3.8c-13.3,0-23.2,1.2-29.7,3.6v-19.3c6.8-2.3,16.2-3.5,28.1-3.5c15.9,0,27.7,2.8,35.3,8.5
			C1513.6,940.4,1517.4,949.8,1517.4,962.8z M1496.1,1008.8v-15.9h-23.2c-6.9,0-11.9,1.3-14.9,3.8c-3.1,2.5-4.6,6.8-4.6,12.6
			c0,6.2,1.7,10.5,5,12.8c3.4,2.3,8.7,3.5,16,3.5c7.6,0,13.1-1.2,16.5-3.5C1494.3,1019.7,1496.1,1015.3,1496.1,1008.8z"/>
		<g>
			<linearGradient id="SVGID_1_" gradientUnits="userSpaceOnUse" x1="1166.6729" y1="909.4604" x2="1039.8606" y2="1049.5051">
				<stop  offset="8.499693e-03" style="stop-color:#FFFFFF;stop-opacity:0"/>
				<stop  offset="0.5531" style="stop-color:#3ED9C9"/>
				<stop  offset="0.838" style="stop-color:#484848"/>
			</linearGradient>
			<path class="st2" d="M1181.2,965.5h-26.6c1.4,4.7,2.1,9.7,2.1,14.8c0,29.9-24.3,54.3-54.3,54.3s-54.3-24.3-54.3-54.3
				c0-28.8,22.6-52.4,51-54.1v-25.9c-42.7,1.7-76.8,36.9-76.8,80c0,44.2,35.9,80.1,80.1,80.1c44.2,0,80.1-35.9,80.1-80.1
				C1182.6,975.3,1182.1,970.3,1181.2,965.5z"/>
		</g>
		<g>
			<rect x="1116.9" y="888.4" class="st0" width="17.9" height="17.9"/>
			<rect x="1187.1" y="892.7" class="st0" width="17.9" height="17.9"/>
			<rect x="1101.5" y="929.8" class="st0" width="24.4" height="24.4"/>
			<rect x="1146.9" y="861.1" class="st0" width="24.4" height="24.4"/>
			<rect x="1084.3" y="873.3" class="st1" width="17.3" height="17.3"/>
			<rect x="1120.8" y="860" class="st1" width="10.1" height="10.1"/>
			<rect x="1141.2" y="911.6" class="st1" width="44.6" height="44.6"/>
		</g>
	</g>
</g>
</svg>
